<?xml version="1.0" encoding="UTF-8" standalone="no"?>
<!-- Created with Inkscape (http://www.inkscape.org/) -->

<svg
   xmlns:dc="http://purl.org/dc/elements/1.1/"
   xmlns:cc="http://creativecommons.org/ns#"
   xmlns:rdf="http://www.w3.org/1999/02/22-rdf-syntax-ns#"
   xmlns:svg="http://www.w3.org/2000/svg"
   xmlns="http://www.w3.org/2000/svg"
   xmlns:sodipodi="http://sodipodi.sourceforge.net/DTD/sodipodi-0.dtd"
   xmlns:inkscape="http://www.inkscape.org/namespaces/inkscape"
   id="svg2"
   version="1.1"
   inkscape:version="0.91 r13725"
   xml:space="preserve"
   width="1500"
   height="904.52502"
   viewBox="0 0 1500 904.52502"
   sodipodi:docname="40279974.svg"><metadata
     id="metadata8"><rdf:RDF><cc:Work
         rdf:about=""><dc:format>image/svg+xml</dc:format><dc:type
           rdf:resource="http://purl.org/dc/dcmitype/StillImage" /><dc:title></dc:title></cc:Work></rdf:RDF></metadata><defs
     id="defs6"><clipPath
       clipPathUnits="userSpaceOnUse"
       id="clipPath20"><path
         d="m 0,0 12000,0 0,6691.95 -12000,0 L 0,0 Z"
         id="path22"
         inkscape:connector-curvature="0" /></clipPath></defs><sodipodi:namedview
     pagecolor="#ffffff"
     bordercolor="#666666"
     borderopacity="1"
     objecttolerance="10"
     gridtolerance="10"
     guidetolerance="10"
     inkscape:pageopacity="0"
     inkscape:pageshadow="2"
     inkscape:window-width="1280"
     inkscape:window-height="755"
     id="namedview4"
     showgrid="false"
     inkscape:zoom="0.46044453"
     inkscape:cx="868.55505"
     inkscape:cy="332.35836"
     inkscape:window-x="0"
     inkscape:window-y="1"
     inkscape:window-maximized="1"
     inkscape:current-layer="g12" /><g
     id="g10"
     inkscape:groupmode="layer"
     inkscape:label="ink_ext_XXXXXX"
     transform="matrix(1.25,0,0,-1.25,0,904.525)"><g
       id="g12"
       transform="scale(0.1,0.1)"><path
         d="m 0,0 12000,0 0,7236.24 -12000,0 L 0,0 Z"
         style="fill:#c4ebe9;fill-opacity:1;fill-rule:nonzero;stroke:none"
         id="path14"
         inkscape:connector-curvature="0" /><g
         id="g16"><g
           id="g18"
           clip-path="url(#clipPath20)"><path
             d="m 5614.36,2020.2 498.75,0 -249.38,798.94 -249.37,-798.94"
             style="fill:#7aa32a;fill-opacity:1;fill-rule:nonzero;stroke:none"
             id="path24"
             inkscape:connector-curvature="0" /><path
             d="m 5863.73,2020.2 249.38,0 -249.38,798.94 0,-798.94"
             style="fill:#73952a;fill-opacity:1;fill-rule:nonzero;stroke:none"
             id="path26"
             inkscape:connector-curvature="0" /><path
             d="m 6117.71,2037.98 76.9414,0 0,493.871 -76.9414,0 0,-493.871 z"
             style="fill:#7d5243;fill-opacity:1;fill-rule:nonzero;stroke:none"
             id="path28"
             inkscape:connector-curvature="0" /><path
             d="m 6155.63,2037.98 39.5703,0 0,493.871 -39.5703,0 0,-493.871 z"
             style="fill:#764b36;fill-opacity:1;fill-rule:nonzero;stroke:none"
             id="path30"
             inkscape:connector-curvature="0" /><path
             d="m 6156.45,4308.96 c -362.09,0 -655.63,-413.7 -655.63,-924.02 0,-510.32 293.54,-924.01 655.63,-924.01 362.09,0 655.62,413.69 655.62,924.01 0,510.32 -293.53,924.02 -655.62,924.02"
             style="fill:#8fc824;fill-opacity:1;fill-rule:nonzero;stroke:none"
             id="path32"
             inkscape:connector-curvature="0" /><path
             d="m 6156.45,4308.95 0,-1848.02 c 362.09,0 655.62,413.69 655.62,924.01 0,510.32 -293.53,924.01 -655.62,924.01"
             style="fill:#88b727;fill-opacity:1;fill-rule:nonzero;stroke:none"
             id="path34"
             inkscape:connector-curvature="0" /><path
             d="m 5482.34,2060.51 55.9609,0 0,359.168 -55.9609,0 0,-359.168 z"
             style="fill:#7d5243;fill-opacity:1;fill-rule:nonzero;stroke:none"
             id="path36"
             inkscape:connector-curvature="0" /><path
             d="m 5509.9,2060.51 28.793,0 0,359.168 -28.793,0 0,-359.168 z"
             style="fill:#764b36;fill-opacity:1;fill-rule:nonzero;stroke:none"
             id="path38"
             inkscape:connector-curvature="0" /><path
             d="m 5510.53,3321.71 c -263.34,0 -476.82,-213.48 -476.82,-476.81 0,-263.33 213.48,-476.8 476.82,-476.8 263.32,0 476.79,213.47 476.79,476.8 0,263.33 -213.47,476.81 -476.79,476.81"
             style="fill:#8fc824;fill-opacity:1;fill-rule:nonzero;stroke:none"
             id="path40"
             inkscape:connector-curvature="0" /><path
             d="m 5510.53,3321.7 0,-953.6 c 263.32,0 476.79,213.47 476.79,476.8 0,263.33 -213.47,476.8 -476.79,476.8"
             style="fill:#88b727;fill-opacity:1;fill-rule:nonzero;stroke:none"
             id="path42"
             inkscape:connector-curvature="0" /><path
             d="m 9363.91,5025.26 c -10.55,172.09 -153.38,308.44 -328.13,308.44 -120.64,0 -226.11,-65.06 -283.3,-161.97 -38.05,23.27 -82.75,36.7 -130.6,36.7 -102.25,0 -190.16,-61.27 -229.17,-149.07 -2.75,0.19 -5.52,0.31 -8.32,0.31 -69.31,0 -125.64,-55.46 -127.1,-124.43 -0.2,0 -0.38,0 -0.57,0 -108.99,0 -197.33,-88.33 -197.33,-197.27 0,-108.96 88.34,-197.3 197.33,-197.3 l 1095.49,0 0,1.35 c 122.61,12.76 218.2,116.41 218.2,242.36 0,121.93 -89.59,222.96 -206.5,240.88"
             style="fill:#fff8ea;fill-opacity:1;fill-rule:nonzero;stroke:none"
             id="path44"
             inkscape:connector-curvature="0" /><path
             d="m -182.695,2151.7 572.48,0 -286.25,917.07 -286.23,-917.07"
             style="fill:#7aa32a;fill-opacity:1;fill-rule:nonzero;stroke:none"
             id="path46"
             inkscape:connector-curvature="0" /><path
             d="m 103.535,2151.7 286.25,0 -286.25,917.07 0,-917.07"
             style="fill:#73952a;fill-opacity:1;fill-rule:nonzero;stroke:none"
             id="path48"
             inkscape:connector-curvature="0" /><path
             d="m 155.391,2151.7 486.757,0 L 398.77,2931.42 155.391,2151.7"
             style="fill:#7aa32a;fill-opacity:1;fill-rule:nonzero;stroke:none"
             id="path50"
             inkscape:connector-curvature="0" /><path
             d="m 398.77,2151.7 243.378,0 -243.378,779.72 0,-779.72"
             style="fill:#73952a;fill-opacity:1;fill-rule:nonzero;stroke:none"
             id="path52"
             inkscape:connector-curvature="0" /><path
             d="m 583.086,2151.7 572.484,0 -286.234,917.07 -286.25,-917.07"
             style="fill:#7aa32a;fill-opacity:1;fill-rule:nonzero;stroke:none"
             id="path54"
             inkscape:connector-curvature="0" /><path
             d="m 869.336,2151.7 286.234,0 -286.234,917.07 0,-917.07"
             style="fill:#73952a;fill-opacity:1;fill-rule:nonzero;stroke:none"
             id="path56"
             inkscape:connector-curvature="0" /><path
             d="m 921.172,2151.7 486.758,0 -243.38,779.72 -243.378,-779.72"
             style="fill:#7aa32a;fill-opacity:1;fill-rule:nonzero;stroke:none"
             id="path58"
             inkscape:connector-curvature="0" /><path
             d="m 1164.55,2151.7 243.38,0 -243.38,779.72 0,-779.72"
             style="fill:#73952a;fill-opacity:1;fill-rule:nonzero;stroke:none"
             id="path60"
             inkscape:connector-curvature="0" /><path
             d="m 10083.6,2151.7 786.2,0 -393.1,1259.35 -393.1,-1259.35"
             style="fill:#7aa32a;fill-opacity:1;fill-rule:nonzero;stroke:none"
             id="path62"
             inkscape:connector-curvature="0" /><path
             d="m 10476.7,2151.7 393.1,0 -393.1,1259.35 0,-1259.35"
             style="fill:#73952a;fill-opacity:1;fill-rule:nonzero;stroke:none"
             id="path64"
             inkscape:connector-curvature="0" /><path
             d="m 10547.9,2151.7 668.4,0 -334.2,1070.74 -334.2,-1070.74"
             style="fill:#7aa32a;fill-opacity:1;fill-rule:nonzero;stroke:none"
             id="path66"
             inkscape:connector-curvature="0" /><path
             d="m 10882.1,2151.7 334.2,0 -334.2,1070.74 0,-1070.74"
             style="fill:#73952a;fill-opacity:1;fill-rule:nonzero;stroke:none"
             id="path68"
             inkscape:connector-curvature="0" /><path
             d="m 11135.2,2151.7 786.2,0 -393.1,1259.35 -393.1,-1259.35"
             style="fill:#7aa32a;fill-opacity:1;fill-rule:nonzero;stroke:none"
             id="path70"
             inkscape:connector-curvature="0" /><path
             d="m 11528.3,2151.7 393.1,0 -393.1,1259.35 0,-1259.35"
             style="fill:#73952a;fill-opacity:1;fill-rule:nonzero;stroke:none"
             id="path72"
             inkscape:connector-curvature="0" /><path
             d="m 11599.5,2151.7 668.4,0 -334.2,1070.74 -334.2,-1070.74"
             style="fill:#7aa32a;fill-opacity:1;fill-rule:nonzero;stroke:none"
             id="path74"
             inkscape:connector-curvature="0" /><path
             d="m 11933.7,2151.7 334.2,0 -334.2,1070.74 0,-1070.74"
             style="fill:#73952a;fill-opacity:1;fill-rule:nonzero;stroke:none"
             id="path76"
             inkscape:connector-curvature="0" /><path
             d="m 3901.5,1946.39 1072.84,0 -536.41,1718.6 -536.43,-1718.6"
             style="fill:#7aa32a;fill-opacity:1;fill-rule:nonzero;stroke:none"
             id="path78"
             inkscape:connector-curvature="0" /><path
             d="m 4437.93,1946.39 536.41,0 -536.41,1718.6 0,-1718.6"
             style="fill:#73952a;fill-opacity:1;fill-rule:nonzero;stroke:none"
             id="path80"
             inkscape:connector-curvature="0" /><path
             d="m 4535.08,1946.39 912.19,0 -456.1,1461.21 -456.09,-1461.21"
             style="fill:#7aa32a;fill-opacity:1;fill-rule:nonzero;stroke:none"
             id="path82"
             inkscape:connector-curvature="0" /><path
             d="m 4991.17,1946.39 456.1,0 -456.1,1461.21 0,-1461.21"
             style="fill:#73952a;fill-opacity:1;fill-rule:nonzero;stroke:none"
             id="path84"
             inkscape:connector-curvature="0" /><path
             d="m 0,0 12148.8,0 0,2151.7 L 0,2151.7 0,0 Z"
             style="fill:#88b727;fill-opacity:1;fill-rule:nonzero;stroke:none"
             id="path86"
             inkscape:connector-curvature="0" /><path
             d="m 5176.05,4647.6 c -5.42,88.65 -79,158.88 -169.02,158.88 -62.15,0 -116.46,-33.51 -145.94,-83.43 -19.59,11.98 -42.61,18.9 -67.28,18.9 -52.66,0 -97.95,-31.56 -118.03,-76.78 -1.42,0.09 -2.85,0.14 -4.3,0.14 -35.7,0 -64.72,-28.56 -65.46,-64.09 -0.1,0 -0.2,0 -0.3,0 -56.15,0 -101.64,-45.5 -101.64,-101.62 0,-56.12 45.49,-101.63 101.64,-101.63 l 564.32,0 0,0.7 c 63.16,6.57 112.38,59.96 112.38,124.85 0,62.8 -46.13,114.85 -106.37,124.08"
             style="fill:#fff8ea;fill-opacity:1;fill-rule:nonzero;stroke:none"
             id="path88"
             inkscape:connector-curvature="0" /><path
             d="m 2766.43,1946.39 70.0898,0 0,449.91 -70.0898,0 0,-449.91 z"
             style="fill:#7d5243;fill-opacity:1;fill-rule:nonzero;stroke:none"
             id="path90"
             inkscape:connector-curvature="0" /><path
             d="m 2800.96,1946.39 36.0508,0 0,449.91 -36.0508,0 0,-449.91 z"
             style="fill:#764b36;fill-opacity:1;fill-rule:nonzero;stroke:none"
             id="path92"
             inkscape:connector-curvature="0" /><path
             d="m 2801.72,3526.24 c -329.86,0 -597.27,-267.41 -597.27,-597.28 0,-329.86 267.41,-597.27 597.27,-597.27 329.86,0 597.28,267.41 597.28,597.27 0,329.87 -267.42,597.28 -597.28,597.28"
             style="fill:#8fc824;fill-opacity:1;fill-rule:nonzero;stroke:none"
             id="path94"
             inkscape:connector-curvature="0" /><path
             d="m 2801.72,3526.24 0,-1194.55 c 329.86,0 597.28,267.41 597.28,597.27 0,329.87 -267.42,597.28 -597.28,597.28"
             style="fill:#88b727;fill-opacity:1;fill-rule:nonzero;stroke:none"
             id="path96"
             inkscape:connector-curvature="0" /><path
             d="m 3567.56,1946.39 70.1016,0 0,449.91 -70.1016,0 0,-449.91 z"
             style="fill:#7d5243;fill-opacity:1;fill-rule:nonzero;stroke:none"
             id="path98"
             inkscape:connector-curvature="0" /><path
             d="m 3602.11,1946.39 36.0313,0 0,449.91 -36.0313,0 0,-449.91 z"
             style="fill:#764b36;fill-opacity:1;fill-rule:nonzero;stroke:none"
             id="path100"
             inkscape:connector-curvature="0" /><path
             d="m 3602.85,4015.25 c -329.86,0 -597.26,-376.88 -597.26,-841.78 0,-464.9 267.4,-841.78 597.26,-841.78 329.86,0 597.29,376.88 597.29,841.78 0,464.9 -267.43,841.78 -597.29,841.78"
             style="fill:#8fc824;fill-opacity:1;fill-rule:nonzero;stroke:none"
             id="path102"
             inkscape:connector-curvature="0" /><path
             d="m 3602.85,4015.24 0,-1683.55 c 329.86,0 597.29,376.88 597.29,841.78 0,464.9 -267.43,841.77 -597.29,841.77"
             style="fill:#88b727;fill-opacity:1;fill-rule:nonzero;stroke:none"
             id="path104"
             inkscape:connector-curvature="0" /><path
             d="m 282.754,1805.39 147.539,0 0,947.141 -147.539,0 0,-947.141 z"
             style="fill:#7d5243;fill-opacity:1;fill-rule:nonzero;stroke:none"
             id="path106"
             inkscape:connector-curvature="0" /><path
             d="m 355.43,1805.39 75.918,0 0,947.141 -75.918,0 0,-947.141 z"
             style="fill:#764b36;fill-opacity:1;fill-rule:nonzero;stroke:none"
             id="path108"
             inkscape:connector-curvature="0" /><path
             d="m 357.051,5131.18 c -694.414,0 -1257.344,-562.93 -1257.344,-1257.33 0,-694.41 562.93,-1257.34 1257.344,-1257.34 694.399,0 1257.329,562.93 1257.329,1257.34 0,694.4 -562.93,1257.33 -1257.329,1257.33"
             style="fill:#8fc824;fill-opacity:1;fill-rule:nonzero;stroke:none"
             id="path110"
             inkscape:connector-curvature="0" /><path
             d="m 357.051,5131.17 0,-2514.66 c 694.399,0 1257.329,562.93 1257.329,1257.34 0,694.4 -562.93,1257.32 -1257.329,1257.32"
             style="fill:#88b727;fill-opacity:1;fill-rule:nonzero;stroke:none"
             id="path112"
             inkscape:connector-curvature="0" /><path
             d="m 1864.14,1805.39 134.43,0 0,863.012 -134.43,0 0,-863.012 z"
             style="fill:#7d5243;fill-opacity:1;fill-rule:nonzero;stroke:none"
             id="path114"
             inkscape:connector-curvature="0" /><path
             d="m 1930.41,1805.39 69.1211,0 0,863.012 -69.1211,0 0,-863.012 z"
             style="fill:#764b36;fill-opacity:1;fill-rule:nonzero;stroke:none"
             id="path116"
             inkscape:connector-curvature="0" /><path
             d="m 1931.84,5773.76 c -632.72,0 -1145.668,-722.91 -1145.668,-1614.65 0,-891.74 512.948,-1614.65 1145.668,-1614.65 632.71,0 1145.66,722.91 1145.66,1614.65 0,891.74 -512.95,1614.65 -1145.66,1614.65"
             style="fill:#8fc824;fill-opacity:1;fill-rule:nonzero;stroke:none"
             id="path118"
             inkscape:connector-curvature="0" /><path
             d="m 1931.84,5773.75 0,-3229.29 c 632.71,0 1145.66,722.91 1145.66,1614.65 0,891.74 -512.95,1614.64 -1145.66,1614.64"
             style="fill:#88b727;fill-opacity:1;fill-rule:nonzero;stroke:none"
             id="path120"
             inkscape:connector-curvature="0" /><path
             d="m 6812.09,5297.15 c -169.08,0 -306.13,-137.06 -306.13,-306.13 0,-169.08 137.05,-306.13 306.13,-306.13 169.06,0 306.13,137.05 306.13,306.13 0,169.07 -137.07,306.13 -306.13,306.13"
             style="fill:#ecc10c;fill-opacity:1;fill-rule:nonzero;stroke:none"
             id="path122"
             inkscape:connector-curvature="0" /><path
             d="m 6812.09,5502.59 c -22.17,0 -40.29,-26.97 -40.29,-59.91 l 0,-25.19 c 0,-32.96 18.12,-59.92 40.29,-59.92 22.15,0 40.27,26.96 40.27,59.92 l 0,25.19 c 0,32.94 -18.12,59.91 -40.27,59.91"
             style="fill:#ecc10c;fill-opacity:1;fill-rule:nonzero;stroke:none"
             id="path124"
             inkscape:connector-curvature="0" /><path
             d="m 6812.09,4624.48 c -22.17,0 -40.29,-26.97 -40.29,-59.93 l 0,-25.18 c 0,-32.94 18.12,-59.92 40.29,-59.92 22.15,0 40.27,26.98 40.27,59.92 l 0,25.18 c 0,32.96 -18.12,59.93 -40.27,59.93"
             style="fill:#ecc10c;fill-opacity:1;fill-rule:nonzero;stroke:none"
             id="path126"
             inkscape:connector-curvature="0" /><path
             d="m 6385.61,5031.3 -25.18,0 c -32.95,0 -59.9,-18.13 -59.9,-40.28 0,-22.15 26.95,-40.28 59.9,-40.28 l 25.18,0 c 32.94,0 59.92,18.13 59.92,40.28 0,22.15 -26.98,40.28 -59.92,40.28"
             style="fill:#ecc10c;fill-opacity:1;fill-rule:nonzero;stroke:none"
             id="path128"
             inkscape:connector-curvature="0" /><path
             d="m 7263.73,5031.3 -25.18,0 c -32.94,0 -59.92,-18.13 -59.92,-40.28 0,-22.15 26.98,-40.28 59.92,-40.28 l 25.18,0 c 32.95,0 59.9,18.13 59.9,40.28 0,22.15 -26.95,40.28 -59.9,40.28"
             style="fill:#e0aa12;fill-opacity:1;fill-rule:nonzero;stroke:none"
             id="path130"
             inkscape:connector-curvature="0" /><path
             d="m 6521.21,5338.87 c -23.3,23.3 -55.19,29.55 -70.86,13.88 -15.66,-15.66 -9.41,-47.55 13.89,-70.85 l 17.81,-17.8 c 23.3,-23.31 55.2,-29.55 70.84,-13.89 15.68,15.67 9.43,47.54 -13.87,70.85 l -17.81,17.81"
             style="fill:#ecc10c;fill-opacity:1;fill-rule:nonzero;stroke:none"
             id="path132"
             inkscape:connector-curvature="0" /><path
             d="m 7142.11,4717.95 c -23.3,23.31 -55.18,29.55 -70.86,13.89 -15.66,-15.67 -9.39,-47.55 13.91,-70.84 l 17.81,-17.83 c 23.3,-23.29 55.19,-29.54 70.84,-13.87 15.66,15.66 9.41,47.55 -13.89,70.85 l -17.81,17.8"
             style="fill:#e0aa12;fill-opacity:1;fill-rule:nonzero;stroke:none"
             id="path134"
             inkscape:connector-curvature="0" /><path
             d="m 6482.05,4717.94 -17.81,-17.79 c -23.28,-23.3 -29.55,-55.19 -13.87,-70.85 15.67,-15.67 47.54,-9.42 70.84,13.87 l 17.79,17.81 c 23.32,23.3 29.57,55.18 13.89,70.85 -15.64,15.66 -47.54,9.42 -70.84,-13.89"
             style="fill:#ecc10c;fill-opacity:1;fill-rule:nonzero;stroke:none"
             id="path136"
             inkscape:connector-curvature="0" /><path
             d="m 7102.97,5338.86 -17.81,-17.81 c -23.3,-23.3 -29.55,-55.17 -13.89,-70.84 15.66,-15.66 47.54,-9.42 70.84,13.89 l 17.81,17.8 c 23.3,23.3 29.55,55.19 13.89,70.84 -15.65,15.67 -47.54,9.42 -70.84,-13.88"
             style="fill:#e0aa12;fill-opacity:1;fill-rule:nonzero;stroke:none"
             id="path138"
             inkscape:connector-curvature="0" /><path
             d="m 6812.09,5297.15 0,-612.26 c 169.06,0.01 306.13,137.06 306.13,306.14 0,169.06 -137.07,306.12 -306.13,306.12"
             style="fill:#e0aa12;fill-opacity:1;fill-rule:nonzero;stroke:none"
             id="path140"
             inkscape:connector-curvature="0" /><path
             d="m 6812.09,4624.47 0,-145.02 c 22.15,0.01 40.27,26.98 40.27,59.92 l 0,25.18 c 0,32.96 -18.12,59.91 -40.27,59.92"
             style="fill:#e0aa12;fill-opacity:1;fill-rule:nonzero;stroke:none"
             id="path142"
             inkscape:connector-curvature="0" /><path
             d="m 6812.09,5502.59 0,-145.02 c 22.15,0.01 40.27,26.97 40.27,59.92 l 0,25.19 c 0,32.94 -18.12,59.91 -40.27,59.91"
             style="fill:#e0aa12;fill-opacity:1;fill-rule:nonzero;stroke:none"
             id="path144"
             inkscape:connector-curvature="0" /><path
             d="m 0,0 12148.8,0 0,1837.34 L 0,1837.34 0,0 Z"
             style="fill:#8fc824;fill-opacity:1;fill-rule:nonzero;stroke:none"
             id="path146"
             inkscape:connector-curvature="0" /><path
             d="m 10397.5,2037.98 77,0 0,493.871 -77,0 0,-493.871 z"
             style="fill:#7d5243;fill-opacity:1;fill-rule:nonzero;stroke:none"
             id="path148"
             inkscape:connector-curvature="0" /><path
             d="m 10435.4,2037.98 39.598,0 0,493.871 -39.598,0 0,-493.871 z"
             style="fill:#764b36;fill-opacity:1;fill-rule:nonzero;stroke:none"
             id="path150"
             inkscape:connector-curvature="0" /><path
             d="m 10436.3,4308.96 c -362.1,0 -655.66,-413.7 -655.66,-924.02 0,-510.32 293.56,-924.01 655.66,-924.01 362.1,0 655.6,413.69 655.6,924.01 0,510.32 -293.5,924.02 -655.6,924.02"
             style="fill:#8fc824;fill-opacity:1;fill-rule:nonzero;stroke:none"
             id="path152"
             inkscape:connector-curvature="0" /><path
             d="m 10436.3,4308.95 0,-1848.02 c 362.1,0 655.6,413.69 655.6,924.01 0,510.32 -293.5,924.01 -655.6,924.01"
             style="fill:#88b727;fill-opacity:1;fill-rule:nonzero;stroke:none"
             id="path154"
             inkscape:connector-curvature="0" /><path
             d="m 9762.17,2060.51 55.9375,0 0,359.168 -55.9375,0 0,-359.168 z"
             style="fill:#7d5243;fill-opacity:1;fill-rule:nonzero;stroke:none"
             id="path156"
             inkscape:connector-curvature="0" /><path
             d="m 9789.73,2060.51 28.7891,0 0,359.168 -28.7891,0 0,-359.168 z"
             style="fill:#764b36;fill-opacity:1;fill-rule:nonzero;stroke:none"
             id="path158"
             inkscape:connector-curvature="0" /><path
             d="m 9790.33,3321.71 c -263.32,0 -476.79,-213.48 -476.79,-476.81 0,-263.33 213.47,-476.8 476.79,-476.8 263.37,0 476.77,213.47 476.77,476.8 0,263.33 -213.4,476.81 -476.77,476.81"
             style="fill:#8fc824;fill-opacity:1;fill-rule:nonzero;stroke:none"
             id="path160"
             inkscape:connector-curvature="0" /><path
             d="m 9790.33,3321.7 0,-953.6 c 263.37,0 476.77,213.47 476.77,476.8 0,263.33 -213.4,476.8 -476.77,476.8"
             style="fill:#88b727;fill-opacity:1;fill-rule:nonzero;stroke:none"
             id="path162"
             inkscape:connector-curvature="0" /><path
             d="m 8181.31,1946.39 1072.85,0 -536.43,1718.6 -536.42,-1718.6"
             style="fill:#7aa32a;fill-opacity:1;fill-rule:nonzero;stroke:none"
             id="path164"
             inkscape:connector-curvature="0" /><path
             d="m 8717.73,1946.39 536.43,0 -536.43,1718.6 0,-1718.6"
             style="fill:#73952a;fill-opacity:1;fill-rule:nonzero;stroke:none"
             id="path166"
             inkscape:connector-curvature="0" /><path
             d="m 8814.9,1946.39 912.17,0 L 9271,3407.6 8814.9,1946.39"
             style="fill:#7aa32a;fill-opacity:1;fill-rule:nonzero;stroke:none"
             id="path168"
             inkscape:connector-curvature="0" /><path
             d="m 9271,1946.39 456.07,0 -456.07,1461.21 0,-1461.21"
             style="fill:#73952a;fill-opacity:1;fill-rule:nonzero;stroke:none"
             id="path170"
             inkscape:connector-curvature="0" /><path
             d="m 7046.25,1946.39 70.082,0 0,449.91 -70.082,0 0,-449.91 z"
             style="fill:#7d5243;fill-opacity:1;fill-rule:nonzero;stroke:none"
             id="path172"
             inkscape:connector-curvature="0" /><path
             d="m 7080.78,1946.39 36.0586,0 0,449.91 -36.0586,0 0,-449.91 z"
             style="fill:#764b36;fill-opacity:1;fill-rule:nonzero;stroke:none"
             id="path174"
             inkscape:connector-curvature="0" /><path
             d="m 7081.54,3526.24 c -329.86,0 -597.28,-267.41 -597.28,-597.28 0,-329.86 267.42,-597.27 597.28,-597.27 329.87,0 597.29,267.41 597.29,597.27 0,329.87 -267.42,597.28 -597.29,597.28"
             style="fill:#8fc824;fill-opacity:1;fill-rule:nonzero;stroke:none"
             id="path176"
             inkscape:connector-curvature="0" /><path
             d="m 7081.54,3526.24 0,-1194.55 c 329.87,0 597.29,267.41 597.29,597.27 0,329.87 -267.42,597.28 -597.29,597.28"
             style="fill:#88b727;fill-opacity:1;fill-rule:nonzero;stroke:none"
             id="path178"
             inkscape:connector-curvature="0" /><path
             d="m 7847.38,1946.39 70.082,0 0,449.91 -70.082,0 0,-449.91 z"
             style="fill:#7d5243;fill-opacity:1;fill-rule:nonzero;stroke:none"
             id="path180"
             inkscape:connector-curvature="0" /><path
             d="m 7881.93,1946.39 36.0391,0 0,449.91 -36.0391,0 0,-449.91 z"
             style="fill:#764b36;fill-opacity:1;fill-rule:nonzero;stroke:none"
             id="path182"
             inkscape:connector-curvature="0" /><path
             d="m 7882.68,4015.25 c -329.87,0 -597.29,-376.88 -597.29,-841.78 0,-464.9 267.42,-841.78 597.29,-841.78 329.86,0 597.26,376.88 597.26,841.78 0,464.9 -267.4,841.78 -597.26,841.78"
             style="fill:#8fc824;fill-opacity:1;fill-rule:nonzero;stroke:none"
             id="path184"
             inkscape:connector-curvature="0" /><path
             d="m 7882.68,4015.24 0,-1683.55 c 329.86,0 597.26,376.88 597.26,841.78 0,464.9 -267.4,841.77 -597.26,841.77"
             style="fill:#88b727;fill-opacity:1;fill-rule:nonzero;stroke:none"
             id="path186"
             inkscape:connector-curvature="0" /><path
             d="m -509.375,1716.7 c -78.145,-2.33 -141.172,-146.46 -141.172,-323.95 0,-177.49 63.027,-321.62 141.172,-323.95 l 0,-0.05 2366.265,0 0,648.01 -2366.265,0 0,-0.06"
             style="fill:#865b35;fill-opacity:1;fill-rule:nonzero;stroke:none"
             id="path188"
             inkscape:connector-curvature="0" /><path
             d="m -509.375,1068.8 0,-0.05 2366.265,0 0,324 -2507.437,0 c 0,-177.49 63.027,-321.62 141.172,-323.95"
             style="fill:#794c2d;fill-opacity:1;fill-rule:nonzero;stroke:none"
             id="path190"
             inkscape:connector-curvature="0" /><path
             d="m 1856.89,1716.76 c -79.02,0 -143.1,-145.06 -143.1,-324.01 0,-178.94 64.08,-324 143.1,-324 79.03,0 143.09,145.06 143.09,324 0,178.95 -64.06,324.01 -143.09,324.01"
             style="fill:#e5b029;fill-opacity:1;fill-rule:nonzero;stroke:none"
             id="path192"
             inkscape:connector-curvature="0" /><path
             d="m 1856.89,1068.75 c 79.03,0 143.09,145.06 143.09,324 l -286.19,0 c 0,-178.94 64.08,-324 143.1,-324"
             style="fill:#dda321;fill-opacity:1;fill-rule:nonzero;stroke:none"
             id="path194"
             inkscape:connector-curvature="0" /><path
             d="m -996.133,1504.86 c -78.147,-2.32 -141.167,-146.45 -141.167,-323.94 0,-177.5 63.02,-321.631 141.167,-323.959 l 0,-0.063 2366.273,0 0,648.022 -2366.273,0 0,-0.06"
             style="fill:#865b35;fill-opacity:1;fill-rule:nonzero;stroke:none"
             id="path196"
             inkscape:connector-curvature="0" /><path
             d="m -996.133,856.961 0,-0.063 2366.273,0 0,324.022 -2507.44,0 c 0,-177.5 63.02,-321.631 141.167,-323.959"
             style="fill:#794c2d;fill-opacity:1;fill-rule:nonzero;stroke:none"
             id="path198"
             inkscape:connector-curvature="0" /><path
             d="m 1370.14,1504.91 c -79.03,0 -143.09,-145.06 -143.09,-323.99 0,-178.96 64.06,-324.022 143.09,-324.022 79.04,0 143.1,145.062 143.1,324.022 0,178.93 -64.06,323.99 -143.1,323.99"
             style="fill:#e5b029;fill-opacity:1;fill-rule:nonzero;stroke:none"
             id="path200"
             inkscape:connector-curvature="0" /><path
             d="m 1370.14,856.898 c 79.04,0 143.1,145.062 143.1,324.022 l -286.19,0 c 0,-178.96 64.06,-324.022 143.09,-324.022"
             style="fill:#dda321;fill-opacity:1;fill-rule:nonzero;stroke:none"
             id="path202"
             inkscape:connector-curvature="0" /><path
             d="m 9085.08,1478.52 0,0.07 -4513.81,0 0,-875.16 4513.81,0 0,0.082 c 105.53,3.14 190.66,197.789 190.66,437.508 0,239.7 -85.13,434.35 -190.66,437.5"
             style="fill:#865b35;fill-opacity:1;fill-rule:nonzero;stroke:none"
             id="path204"
             inkscape:connector-curvature="0" /><path
             d="m 4571.27,603.43 4513.81,0 0,0.082 c 105.53,3.14 190.66,197.789 190.66,437.508 l -4704.47,0 0,-437.59"
             style="fill:#794c2d;fill-opacity:1;fill-rule:nonzero;stroke:none"
             id="path206"
             inkscape:connector-curvature="0" /><path
             d="m 4571.27,1478.59 c -106.74,0 -193.26,-195.91 -193.26,-437.58 0,-241.658 86.52,-437.58 193.26,-437.58 106.72,0 193.24,195.922 193.24,437.58 0,241.67 -86.52,437.58 -193.24,437.58"
             style="fill:#e5b029;fill-opacity:1;fill-rule:nonzero;stroke:none"
             id="path208"
             inkscape:connector-curvature="0" /><path
             d="m 4571.27,603.43 c 106.72,0 193.24,195.91 193.24,437.59 l -386.5,0 c 0,-241.68 86.52,-437.59 193.26,-437.59"
             style="fill:#dda321;fill-opacity:1;fill-rule:nonzero;stroke:none"
             id="path210"
             inkscape:connector-curvature="0" /><path
             d="m 9438.52,2211.76 0,0.08 -4513.83,0 0,-875.17 4513.83,0 0,0.08 c 105.52,3.14 190.66,197.79 190.66,437.5 0,239.7 -85.14,434.36 -190.66,437.51"
             style="fill:#865b35;fill-opacity:1;fill-rule:nonzero;stroke:none"
             id="path212"
             inkscape:connector-curvature="0" /><path
             d="m 4924.69,1336.67 4513.83,0 0,0.08 c 105.52,3.14 190.66,197.79 190.66,437.5 l -4704.49,0 0,-437.58"
             style="fill:#794c2d;fill-opacity:1;fill-rule:nonzero;stroke:none"
             id="path214"
             inkscape:connector-curvature="0" /><path
             d="m 4924.69,2211.84 c -106.72,0 -193.24,-195.92 -193.24,-437.59 0,-241.67 86.52,-437.58 193.24,-437.58 106.74,0 193.26,195.91 193.26,437.58 0,241.67 -86.52,437.59 -193.26,437.59"
             style="fill:#e5b029;fill-opacity:1;fill-rule:nonzero;stroke:none"
             id="path216"
             inkscape:connector-curvature="0" /><path
             d="m 4924.69,1336.67 c 106.74,0 193.26,195.91 193.26,437.58 l -386.5,0 c 0,-241.67 86.52,-437.58 193.24,-437.58"
             style="fill:#dda321;fill-opacity:1;fill-rule:nonzero;stroke:none"
             id="path218"
             inkscape:connector-curvature="0" /><path
             d="m 9867.44,1478.52 0,0.07 -4513.81,0 0,-875.16 4513.81,0 0,0.082 c 105.53,3.14 190.66,197.789 190.66,437.508 0,239.7 -85.13,434.35 -190.66,437.5"
             style="fill:#865b35;fill-opacity:1;fill-rule:nonzero;stroke:none"
             id="path220"
             inkscape:connector-curvature="0" /><path
             d="m 5353.63,603.43 4513.81,0 0,0.082 c 105.53,3.14 190.66,197.789 190.66,437.508 l -4704.47,0 0,-437.59"
             style="fill:#794c2d;fill-opacity:1;fill-rule:nonzero;stroke:none"
             id="path222"
             inkscape:connector-curvature="0" /><path
             d="m 5353.63,1478.59 c -106.74,0 -193.26,-195.91 -193.26,-437.58 0,-241.658 86.52,-437.58 193.26,-437.58 106.74,0 193.26,195.922 193.26,437.58 0,241.67 -86.52,437.58 -193.26,437.58"
             style="fill:#e5b029;fill-opacity:1;fill-rule:nonzero;stroke:none"
             id="path224"
             inkscape:connector-curvature="0" /><path
             d="m 5353.63,603.43 c 106.74,0 193.26,195.91 193.26,437.59 l -386.52,0 c 0,-241.68 86.52,-437.59 193.26,-437.59"
             style="fill:#dda321;fill-opacity:1;fill-rule:nonzero;stroke:none"
             id="path226"
             inkscape:connector-curvature="0" /><path
             d="m 11460.1,4914.08 c -6.3,101.82 -90.8,182.49 -194.2,182.49 -71.4,0 -133.8,-38.49 -167.6,-95.83 -22.5,13.77 -49,21.71 -77.3,21.71 -60.5,0 -112.5,-36.25 -135.6,-88.19 -1.6,0.1 -3.2,0.17 -4.9,0.17 -41,0 -74.3,-32.81 -75.2,-73.61 -0.1,0 -0.2,0 -0.3,0 -64.5,0 -116.8,-52.27 -116.8,-116.72 0,-64.46 52.3,-116.74 116.8,-116.74 l 648.1,0 0,0.8 c 72.6,7.55 129.1,68.88 129.1,143.39 0,72.15 -53,131.93 -122.1,142.53"
             style="fill:#fff8ea;fill-opacity:1;fill-rule:nonzero;stroke:none"
             id="path228"
             inkscape:connector-curvature="0" /></g></g><path
         d="M 2595.82,601.121 2186.86,421.449 2608.3,0 l 1975.72,0 -601.11,601.121 -1387.09,0"
         style="fill:#88b727;fill-opacity:1;fill-rule:nonzero;stroke:none"
         id="path230"
         inkscape:connector-curvature="0" /><path
         d="m 3862.73,3736.76 c -50.54,109.45 -165.7,163.71 -257.18,121.13 -91.49,-42.55 -124.69,-165.78 -74.14,-275.25 l 348.55,-684.67 332.29,154.56 -348.56,684.67 -0.96,-0.44"
         style="fill:#dda321;fill-opacity:1;fill-rule:nonzero;stroke:none"
         id="path232"
         inkscape:connector-curvature="0" /><path
         d="m 3148.01,3982.49 17.5,-110.3 160.84,0 0,218.79 -160.84,0 -17.5,-108.49"
         style="fill:#f6ad67;fill-opacity:1;fill-rule:nonzero;stroke:none"
         id="path234"
         inkscape:connector-curvature="0" /><path
         d="m 3004.34,3872.19 161.172,0 0,218.789 -161.172,0 0,-218.789 z"
         style="fill:#faba73;fill-opacity:1;fill-rule:nonzero;stroke:none"
         id="path236"
         inkscape:connector-curvature="0" /><path
         d="m 2692.21,3880.92 c -109.2,0 -197.74,-81.38 -197.74,-224.98 l 69.46,-1009.02 604.7,0 17.5,553.07 -17.5,680.93 -476.42,0"
         style="fill:#e5b029;fill-opacity:1;fill-rule:nonzero;stroke:none"
         id="path238"
         inkscape:connector-curvature="0" /><path
         d="m 3642.73,3880.92 -477.22,0 0,-1234 601.52,0 73.4,1009.02 c 0,143.6 -88.52,224.98 -197.7,224.98"
         style="fill:#dda321;fill-opacity:1;fill-rule:nonzero;stroke:none"
         id="path240"
         inkscape:connector-curvature="0" /><path
         d="m 2549.84,968.512 320.67,0 c 0,0 47.03,1026.988 131.81,1168.738 62.19,103.99 87.15,117.99 87.15,117.99 l -539.63,52.4 0,-1339.128"
         style="fill:#405972;fill-opacity:1;fill-rule:nonzero;stroke:none"
         id="path242"
         inkscape:connector-curvature="0" /><path
         d="M 3328.69,2137.25 C 3413.48,1995.5 3460.51,968.512 3460.51,968.512 l 320.64,0 0,1339.128 -539.65,-52.4 c 0,0 24.98,-14 87.19,-117.99"
         style="fill:#394f66;fill-opacity:1;fill-rule:nonzero;stroke:none"
         id="path244"
         inkscape:connector-curvature="0" /><path
         d="m 2549.84,2849.07 0,-576.33 c 0,0 455.92,-34.99 609.91,-34.99 l 23.26,221.92 -23.26,389.4 -609.91,0"
         style="fill:#405972;fill-opacity:1;fill-rule:nonzero;stroke:none"
         id="path246"
         inkscape:connector-curvature="0" /><path
         d="m 3159.75,2237.75 c 153.96,0 621.4,34.99 621.4,34.99 l 0,576.33 -621.4,0 0,-611.32"
         style="fill:#394f66;fill-opacity:1;fill-rule:nonzero;stroke:none"
         id="path248"
         inkscape:connector-curvature="0" /><path
         d="m 2915.86,1115.7 -397.01,0 c -9.4,0 -16.99,-7.82 -16.99,-17.52 l 0,-131.258 c 0,-9.68 7.59,-17.512 16.99,-17.512 l 397.01,0 c 9.41,0 17.01,7.832 17.01,17.512 l 0,131.258 c 0,9.7 -7.6,17.52 -17.01,17.52"
         style="fill:#394f66;fill-opacity:1;fill-rule:nonzero;stroke:none"
         id="path250"
         inkscape:connector-curvature="0" /><path
         d="m 3815.76,1115.7 -397.07,0 c -9.35,0 -17.01,-7.82 -17.01,-17.52 l 0,-131.258 c 0,-9.68 7.66,-17.512 17.01,-17.512 l 397.07,0 c 9.4,0 17.01,7.832 17.01,17.512 l 0,131.258 c 0,9.7 -7.61,17.52 -17.01,17.52"
         style="fill:#314552;fill-opacity:1;fill-rule:nonzero;stroke:none"
         id="path252"
         inkscape:connector-curvature="0" /><path
         d="m 3147.83,3731.59 17.5,-52.76 0.55,-1.37 75.9,81.59 255.56,121.87 -332.01,17.52 -17.5,-166.85"
         style="fill:#fafafa;fill-opacity:1;fill-rule:nonzero;stroke:none"
         id="path254"
         inkscape:connector-curvature="0" /><path
         d="m 3094.24,3757.24 71.09,-78.41 0,219.61 -325.43,-17.52 254.34,-123.68"
         style="fill:#ffffff;fill-opacity:1;fill-rule:nonzero;stroke:none"
         id="path256"
         inkscape:connector-curvature="0" /><path
         d="m 2725.8,3880.92 174.47,-420.56 193.97,296.88 -254.34,123.68 -114.1,0"
         style="fill:#dda321;fill-opacity:1;fill-rule:nonzero;stroke:none"
         id="path258"
         inkscape:connector-curvature="0" /><path
         d="m 3241.78,3759.05 195.11,-298.69 174.48,420.56 -114.03,0 -255.56,-121.87"
         style="fill:#cf921d;fill-opacity:1;fill-rule:nonzero;stroke:none"
         id="path260"
         inkscape:connector-curvature="0" /><path
         d="m 2758.48,3893.59 -68.3,0 c -12.88,0 -23.29,-8.81 -23.29,-19.71 l 0,-1036.71 114.87,0 0,1036.71 c 0,10.9 -10.43,19.71 -23.28,19.71"
         style="fill:#405972;fill-opacity:1;fill-rule:nonzero;stroke:none"
         id="path262"
         inkscape:connector-curvature="0" /><path
         d="m 3629.34,3893.59 -68.3,0 c -12.88,0 -23.31,-8.81 -23.31,-19.71 l 0,-1036.71 114.89,0 0,1036.71 c 0,10.9 -10.43,19.71 -23.28,19.71"
         style="fill:#405972;fill-opacity:1;fill-rule:nonzero;stroke:none"
         id="path264"
         inkscape:connector-curvature="0" /><path
         d="m 2666.89,2716.95 985.73,0 0,659.172 -985.73,0 0,-659.172 z"
         style="fill:#405972;fill-opacity:1;fill-rule:nonzero;stroke:none"
         id="path266"
         inkscape:connector-curvature="0" /><path
         d="m 3159.96,2716.95 492.66,0 0,659.172 -492.66,0 0,-659.172 z"
         style="fill:#394f66;fill-opacity:1;fill-rule:nonzero;stroke:none"
         id="path268"
         inkscape:connector-curvature="0" /><path
         d="m 2757.6,3460.36 -66.58,0 c -28.11,0 -50.92,-22.79 -50.92,-50.95 l 0,-66.56 c 0,-28.16 22.81,-50.97 50.92,-50.97 l 66.58,0 c 28.14,0 50.97,22.81 50.97,50.97 l 0,66.56 c 0,28.16 -22.83,50.95 -50.97,50.95"
         style="fill:#f35f3e;fill-opacity:1;fill-rule:nonzero;stroke:none"
         id="path270"
         inkscape:connector-curvature="0" /><path
         d="m 3628.42,3460.36 -66.54,0 c -28.13,0 -50.94,-22.79 -50.94,-50.95 l 0,-66.56 c 0,-28.16 22.81,-50.97 50.94,-50.97 l 66.54,0 c 28.16,0 50.97,22.81 50.97,50.97 l 0,66.56 c 0,28.16 -22.81,50.95 -50.97,50.95"
         style="fill:#dda321;fill-opacity:1;fill-rule:nonzero;stroke:none"
         id="path272"
         inkscape:connector-curvature="0" /><path
         d="M 2514.82,882.641 C 2474.9,751.102 2418.54,675 2418.54,675 l 74.66,-75.211 284.69,100 -9.39,86.063 9.39,169.589 c 0,0 -223.14,58.719 -263.07,-72.8"
         style="fill:#d9a126;fill-opacity:1;fill-rule:nonzero;stroke:none"
         id="path274"
         inkscape:connector-curvature="0" /><path
         d="m 2904.98,599.789 c 0,0 -606.68,-66.848 -681.44,-73.41 -74.79,-6.547 -57.97,-93.469 -36.47,-104.719 206.58,-110.301 391.78,-55.801 530.16,8.672 138.32,64.508 205.47,57.297 211.13,80.68 12.13,64.48 -23.38,88.777 -23.38,88.777"
         style="fill:#e2d4c5;fill-opacity:1;fill-rule:nonzero;stroke:none"
         id="path276"
         inkscape:connector-curvature="0" /><path
         d="m 2885.33,728.82 c -2.83,29.922 -127.79,12.082 -159.72,175.969 -17.97,92.211 -152.72,74.941 -192,63.723 -23.38,-33.68 -14.88,-278.09 -140.91,-301.961 -45.71,-7.082 -46.33,-3.61 -77.93,-10.61 -145.96,-32.371 -132.84,-135.671 -117.45,-151.089 148.66,-124.289 488.11,-10.95 573.19,29.238 85.04,40.199 58.75,29.219 144.72,55.43 25.9,86.429 -29.9,139.3 -29.9,139.3"
         style="fill:#e5b029;fill-opacity:1;fill-rule:nonzero;stroke:none"
         id="path278"
         inkscape:connector-curvature="0" /><path
         d="m 2892.97,955.441 c 0,0 -244.26,42.27 -284.2,-89.25 -39.92,-131.519 -115.08,-206.679 -115.08,-206.679 l 114.61,-59.723 297.7,100 -22.43,86.063 9.4,169.589"
         style="fill:#d9a126;fill-opacity:1;fill-rule:nonzero;stroke:none"
         id="path280"
         inkscape:connector-curvature="0" /><path
         d="m 2592.15,722.582 c -12.58,0 -22.77,-10.211 -22.77,-22.793 0,-12.578 10.19,-22.789 22.77,-22.789 12.58,0 22.79,10.211 22.79,22.789 0,12.582 -10.21,22.793 -22.79,22.793"
         style="fill:#e2d4c5;fill-opacity:1;fill-rule:nonzero;stroke:none"
         id="path282"
         inkscape:connector-curvature="0" /><path
         d="m 2631.07,794.32 c -12.57,0 -22.77,-10.211 -22.77,-22.8 0,-12.571 10.2,-22.778 22.77,-22.778 12.6,0 22.8,10.207 22.8,22.778 0,12.589 -10.2,22.8 -22.8,22.8"
         style="fill:#e2d4c5;fill-opacity:1;fill-rule:nonzero;stroke:none"
         id="path284"
         inkscape:connector-curvature="0" /><path
         d="m 2670,866.039 c -12.58,0 -22.77,-10.199 -22.77,-22.777 0,-12.59 10.19,-22.793 22.77,-22.793 12.6,0 22.79,10.203 22.79,22.793 0,12.578 -10.19,22.777 -22.79,22.777"
         style="fill:#e2d4c5;fill-opacity:1;fill-rule:nonzero;stroke:none"
         id="path286"
         inkscape:connector-curvature="0" /><path
         d="m 2445.1,727.59 c -2.78,-1.57 -3.73,-5.09 -2.17,-7.848 1.56,-2.773 5.1,-3.742 7.85,-2.16 63.34,36 137.05,-21.703 137.77,-22.293 1.08,-0.84 2.35,-1.25 3.6,-1.25 1.7,0 3.36,0.742 4.51,2.172 1.97,2.48 1.56,6.098 -0.92,8.09 -3.26,2.59 -80.51,63.168 -150.64,23.289"
         style="fill:#394f66;fill-opacity:1;fill-rule:nonzero;stroke:none"
         id="path288"
         inkscape:connector-curvature="0" /><path
         d="m 2475.88,790.621 c -2.64,-1.781 -3.32,-5.359 -1.54,-7.992 1.77,-2.637 5.35,-3.328 7.98,-1.559 72.89,49.172 142.02,-11.238 144.93,-13.828 1.09,-0.98 2.46,-1.472 3.82,-1.472 1.59,0 3.17,0.652 4.3,1.921 2.11,2.372 1.92,5.989 -0.45,8.118 -0.78,0.691 -78.65,69.05 -159.04,14.812"
         style="fill:#394f66;fill-opacity:1;fill-rule:nonzero;stroke:none"
         id="path290"
         inkscape:connector-curvature="0" /><path
         d="m 2672.87,848.262 c -4.74,2.699 -116.62,65.527 -175.35,-1.203 -2.09,-2.379 -1.86,-6.028 0.53,-8.118 1.09,-0.961 2.44,-1.441 3.79,-1.441 1.6,0 3.2,0.66 4.33,1.949 52.52,59.672 159.9,-0.57 160.98,-1.187 2.75,-1.582 6.27,-0.621 7.85,2.129 1.58,2.769 0.63,6.289 -2.13,7.871"
         style="fill:#394f66;fill-opacity:1;fill-rule:nonzero;stroke:none"
         id="path292"
         inkscape:connector-curvature="0" /><path
         d="m 3553.11,955.441 9.39,-169.589 -9.39,-86.063 284.68,-100 74.67,75.211 c 0,0 -56.37,76.102 -96.29,207.641 -39.94,131.519 -263.06,72.8 -263.06,72.8"
         style="fill:#d9a126;fill-opacity:1;fill-rule:nonzero;stroke:none"
         id="path294"
         inkscape:connector-curvature="0" /><path
         d="m 4107.46,526.379 c -74.76,6.562 -681.44,73.41 -681.44,73.41 0,0 -35.51,-24.297 -23.38,-88.777 5.66,-23.383 72.81,-16.172 211.13,-80.68 138.38,-64.473 323.57,-118.973 530.16,-8.672 21.5,11.25 38.32,98.172 -36.47,104.719"
         style="fill:#e2d4c5;fill-opacity:1;fill-rule:nonzero;stroke:none"
         id="path296"
         inkscape:connector-curvature="0" /><path
         d="m 4016.21,655.941 c -31.58,7 -32.21,3.528 -77.91,10.61 -126.03,23.871 -117.54,268.281 -140.92,301.961 C 3758.11,979.73 3623.36,997 3605.39,904.789 3573.46,740.902 3448.5,758.742 3445.66,728.82 c 0,0 -55.8,-52.871 -29.9,-139.3 85.98,-26.211 59.69,-15.231 144.73,-55.43 85.08,-40.188 424.53,-153.527 573.18,-29.238 15.39,15.418 28.52,118.718 -117.46,151.089"
         style="fill:#e5b029;fill-opacity:1;fill-rule:nonzero;stroke:none"
         id="path298"
         inkscape:connector-curvature="0" /><path
         d="m 3438.03,955.441 9.39,-169.589 -22.42,-86.063 297.7,-100 114.6,59.723 c 0,0 -75.15,75.16 -115.07,206.679 -39.94,131.52 -284.2,89.25 -284.2,89.25"
         style="fill:#d9a126;fill-opacity:1;fill-rule:nonzero;stroke:none"
         id="path300"
         inkscape:connector-curvature="0" /><path
         d="m 3738.85,722.582 c -12.6,0 -22.8,-10.211 -22.8,-22.793 0,-12.578 10.2,-22.789 22.8,-22.789 12.58,0 22.77,10.211 22.77,22.789 0,12.582 -10.19,22.793 -22.77,22.793"
         style="fill:#e2d4c5;fill-opacity:1;fill-rule:nonzero;stroke:none"
         id="path302"
         inkscape:connector-curvature="0" /><path
         d="m 3699.92,794.32 c -12.6,0 -22.79,-10.211 -22.79,-22.8 0,-12.571 10.19,-22.778 22.79,-22.778 12.58,0 22.78,10.207 22.78,22.778 0,12.589 -10.2,22.8 -22.78,22.8"
         style="fill:#e2d4c5;fill-opacity:1;fill-rule:nonzero;stroke:none"
         id="path304"
         inkscape:connector-curvature="0" /><path
         d="m 3660.98,866.039 c -12.58,0 -22.78,-10.199 -22.78,-22.777 0,-12.59 10.2,-22.793 22.78,-22.793 12.59,0 22.79,10.203 22.79,22.793 0,12.578 -10.2,22.777 -22.79,22.777"
         style="fill:#e2d4c5;fill-opacity:1;fill-rule:nonzero;stroke:none"
         id="path306"
         inkscape:connector-curvature="0" /><path
         d="m 3885.9,727.59 c -70.14,39.871 -147.4,-20.699 -150.65,-23.289 -2.5,-1.992 -2.89,-5.61 -0.91,-8.102 1.13,-1.418 2.81,-2.16 4.51,-2.16 1.25,0 2.52,0.41 3.57,1.262 0.74,0.578 74.36,58.351 137.79,22.281 2.78,-1.582 6.27,-0.613 7.86,2.16 1.56,2.758 0.6,6.278 -2.17,7.848"
         style="fill:#394f66;fill-opacity:1;fill-rule:nonzero;stroke:none"
         id="path308"
         inkscape:connector-curvature="0" /><path
         d="m 3696.07,775.809 c -2.36,-2.129 -2.57,-5.758 -0.44,-8.118 1.13,-1.269 2.71,-1.929 4.29,-1.929 1.37,0 2.74,0.5 3.83,1.48 0.72,0.637 71.88,63.11 144.92,13.828 2.64,-1.769 6.21,-1.078 7.99,1.559 1.78,2.633 1.07,6.211 -1.56,7.992 -80.39,54.231 -158.24,-14.121 -159.03,-14.812"
         style="fill:#394f66;fill-opacity:1;fill-rule:nonzero;stroke:none"
         id="path310"
         inkscape:connector-curvature="0" /><path
         d="m 3658.13,848.262 c -2.76,-1.582 -3.72,-5.102 -2.13,-7.871 1.05,-1.852 2.98,-2.891 5,-2.891 0.95,0 1.95,0.242 2.85,0.762 1.07,0.617 108.38,60.949 160.97,1.187 2.11,-2.39 5.75,-2.609 8.13,-0.508 2.38,2.09 2.62,5.739 0.53,8.118 -58.75,66.73 -170.63,3.914 -175.35,1.203"
         style="fill:#394f66;fill-opacity:1;fill-rule:nonzero;stroke:none"
         id="path312"
         inkscape:connector-curvature="0" /><path
         d="m 3848.52,5158.98 c -40.81,2.3 -75.75,-28.96 -78.01,-69.79 l -13.6,-245.24 c -2.28,-40.82 28.95,-75.77 69.79,-78.01 40.8,-2.28 55.82,47.47 57.44,88.33 4.47,110.9 25.43,170.09 34.18,226.74 6.23,40.39 -28.98,75.72 -69.8,77.97"
         style="fill:#f6ad67;fill-opacity:1;fill-rule:nonzero;stroke:none"
         id="path314"
         inkscape:connector-curvature="0" /><path
         d="m 2560.49,5089.19 c -2.25,40.83 -37.17,72.09 -77.97,69.79 -40.86,-2.25 -76.06,-37.58 -69.82,-77.97 8.75,-56.65 29.7,-115.84 34.16,-226.74 1.66,-40.86 16.68,-90.61 57.46,-88.33 40.82,2.24 72.07,37.19 69.78,78.01 l -13.61,245.24"
         style="fill:#faba73;fill-opacity:1;fill-rule:nonzero;stroke:none"
         id="path316"
         inkscape:connector-curvature="0" /><path
         d="m 3520.16,5872.45 -709.3,0 c -193.46,0 -315.25,-156.83 -315.25,-350.28 l 35.02,-814.39 c 0,-193.45 121.79,-350.27 315.25,-350.27 l 639.26,0 c 193.45,0 315.25,156.82 315.25,350.27 l 35,814.39 c 0,193.45 -121.78,350.28 -315.23,350.28"
         style="fill:#faba73;fill-opacity:1;fill-rule:nonzero;stroke:none"
         id="path318"
         inkscape:connector-curvature="0" /><path
         d="m 3517.38,5872.45 -354.65,0 0,-1514.94 319.63,0 c 193.46,0 315.26,156.82 315.26,350.27 l 35,814.39 c 0,193.45 -121.78,350.28 -315.24,350.28"
         style="fill:#f6ad67;fill-opacity:1;fill-rule:nonzero;stroke:none"
         id="path320"
         inkscape:connector-curvature="0" /><path
         d="M 2851.93,4579.01 C 2696,4447.84 2553.07,4726.66 2553.07,4930.43 l -21.86,579.51 c -14.65,-39.77 -69.75,100.77 -69.75,3.38 l 66.68,-819.17 c 0,-560.52 634.59,-719.18 634.59,-719.18 l 17.5,389.73 -17.5,319.38 c -192.05,-0.29 -244.45,-49.25 -310.8,-105.07"
         style="fill:#74462e;fill-opacity:1;fill-rule:nonzero;stroke:none"
         id="path322"
         inkscape:connector-curvature="0" /><path
         d="m 3793.95,5512.84 -21.55,-582.41 c 0,-203.77 -142.93,-482.59 -298.86,-351.42 -66.35,55.82 -118.75,104.78 -310.81,105.07 l 0,-709.11 c 0,0 634.61,158.66 634.61,719.18 l 64.65,869.57 c 0,97.37 -53.4,-90.65 -68.04,-50.88"
         style="fill:#623824;fill-opacity:1;fill-rule:nonzero;stroke:none"
         id="path324"
         inkscape:connector-curvature="0" /><path
         d="m 3722.19,5280.77 c -7.95,2.55 -199.65,80.41 -399.4,18.59 -26.93,-8.33 20.65,-92.15 48.25,-83.03 157.3,51.93 314.82,0.69 316.38,0.19 26.76,-8.52 61.45,55.6 34.77,64.25"
         style="fill:#623824;fill-opacity:1;fill-rule:nonzero;stroke:none"
         id="path326"
         inkscape:connector-curvature="0" /><path
         d="m 3008.96,5299.36 c -46.89,23.79 -120.97,42.21 -175.35,41.2 -124.14,-2.35 -218.49,-58.01 -224.04,-59.79 -26.68,-8.65 8.03,-72.77 34.77,-64.25 1.13,0.35 84.61,40.77 190.76,39.93 57.99,-0.49 91.11,-25.55 125.64,-40.12 26.78,-11.27 73.36,70.3 48.22,83.03"
         style="fill:#74462e;fill-opacity:1;fill-rule:nonzero;stroke:none"
         id="path328"
         inkscape:connector-curvature="0" /><path
         d="m 3036.25,4705.63 c 0,-38.53 59.49,-69.81 129.71,-70.73 l -3.07,779.29 c -47.46,-59.32 -126.64,-708.56 -126.64,-708.56"
         style="fill:#faba73;fill-opacity:1;fill-rule:nonzero;stroke:none"
         id="path330"
         inkscape:connector-curvature="0" /><path
         d="m 3162.89,5414.19 0,-779.29 c 1.04,-0.01 2.03,-0.07 3.07,-0.07 71.66,0 129.72,31.7 129.72,70.8 0,0 -24.57,213.79 -63.02,442.37 -28.07,166.86 -49.07,247.2 -69.77,266.19"
         style="fill:#f6ad67;fill-opacity:1;fill-rule:nonzero;stroke:none"
         id="path332"
         inkscape:connector-curvature="0" /><path
         d="m 3058.95,4715.8 c -23.29,0 -42.17,-15.53 -42.17,-34.66 0,-19.15 18.88,-34.68 42.17,-34.68 23.28,0 42.16,15.53 42.16,34.68 0,19.13 -18.88,34.66 -42.16,34.66"
         style="fill:#faba73;fill-opacity:1;fill-rule:nonzero;stroke:none"
         id="path334"
         inkscape:connector-curvature="0" /><path
         d="m 3271.46,4715.8 c -23.3,0 -42.18,-15.53 -42.18,-34.66 0,-19.15 18.88,-34.68 42.18,-34.68 23.29,0 42.17,15.53 42.17,34.68 0,19.13 -18.88,34.66 -42.17,34.66"
         style="fill:#f6ad67;fill-opacity:1;fill-rule:nonzero;stroke:none"
         id="path336"
         inkscape:connector-curvature="0" /><path
         d="m 2878.52,6151.14 c -293.64,-61.89 -260.88,-251.56 -260.88,-251.56 -43.4,30.66 -129.03,9.63 -159.83,-173.71 -32.11,-191.18 40.61,-322 40.61,-322 0,0 22.4,-11.38 32.71,97.43 0,279.93 157.64,129.49 157.64,129.49 0,0 2.4,3.65 7.34,9.5 0.06,0.05 99.81,116.76 466.62,3.14 l 17.5,275.04 -17.5,253.43 c -84.27,6.29 -178.51,1.52 -284.21,-20.76"
         style="fill:#74462e;fill-opacity:1;fill-rule:nonzero;stroke:none"
         id="path338"
         inkscape:connector-curvature="0" /><path
         d="m 3162.73,6171.9 0,-528.47 c 488.19,-152.5 702.7,-239.22 702.74,-41.57 0.04,215.99 -98.52,542.92 -702.74,570.04"
         style="fill:#623824;fill-opacity:1;fill-rule:nonzero;stroke:none"
         id="path340"
         inkscape:connector-curvature="0" /><path
         d="m 3339.77,4519.85 c -171.43,-58.07 -346.84,-0.56 -348.56,0.04 -16.91,5.68 -35.88,-1.84 -42.3,-16.89 -6.45,-15.07 30.93,-190.3 223.1,-190.3 161.43,0 216.58,175.23 210.1,190.3 -6.45,15.05 -25.39,22.57 -42.34,16.85"
         style="fill:#f6ad67;fill-opacity:1;fill-rule:nonzero;stroke:none"
         id="path342"
         inkscape:connector-curvature="0" /><path
         d="m 2985.78,4454.86 c 0,0 41,-113.07 175.76,-124.02 76.37,-0.38 156.31,72.9 173.09,124.02 -165.31,-4.34 -348.85,0 -348.85,0"
         style="fill:#d83e30;fill-opacity:1;fill-rule:nonzero;stroke:none"
         id="path344"
         inkscape:connector-curvature="0" /><path
         d="m 2975.96,4496.51 c 0,0 1.81,-29.58 12.77,-47.09 198.13,-63.48 341.15,-4.73 341.15,-4.73 0,0 22.62,18.98 16.06,51.82 -168.64,-57.02 -369.98,0 -369.98,0"
         style="fill:#ffffff;fill-opacity:1;fill-rule:nonzero;stroke:none"
         id="path346"
         inkscape:connector-curvature="0" /><path
         d="m 3530.18,5172.62 c -35.06,0 -63.5,-28.43 -63.5,-63.49 0,-35.06 28.44,-63.5 63.5,-63.5 35.05,0 63.47,28.44 63.47,63.5 0,35.06 -28.42,63.49 -63.47,63.49"
         style="fill:#472618;fill-opacity:1;fill-rule:nonzero;stroke:none"
         id="path348"
         inkscape:connector-curvature="0" /><path
         d="m 3545.86,5144.15 c -11.9,0 -21.5,-9.64 -21.5,-21.54 0,-11.87 9.6,-21.52 21.5,-21.52 11.91,0 21.52,9.65 21.52,21.52 0,11.9 -9.61,21.54 -21.52,21.54"
         style="fill:#f7d4b0;fill-opacity:1;fill-rule:nonzero;stroke:none"
         id="path350"
         inkscape:connector-curvature="0" /><path
         d="m 2790.21,5172.62 c -35.05,0 -63.47,-28.43 -63.47,-63.49 0,-35.06 28.42,-63.5 63.47,-63.5 35.06,0 63.48,28.44 63.48,63.5 0,35.06 -28.42,63.49 -63.48,63.49"
         style="fill:#472618;fill-opacity:1;fill-rule:nonzero;stroke:none"
         id="path352"
         inkscape:connector-curvature="0" /><path
         d="m 2805.94,5144.15 c -11.92,0 -21.55,-9.64 -21.55,-21.54 0,-11.87 9.63,-21.52 21.55,-21.52 11.89,0 21.5,9.65 21.5,21.52 0,11.9 -9.61,21.54 -21.5,21.54"
         style="fill:#f7d4b0;fill-opacity:1;fill-rule:nonzero;stroke:none"
         id="path354"
         inkscape:connector-curvature="0" /><path
         d="m 2429.41,5391.86 1463.46,0 0,231.582 -1463.46,0 0,-231.582 z"
         style="fill:#4e4f53;fill-opacity:1;fill-rule:nonzero;stroke:none"
         id="path356"
         inkscape:connector-curvature="0" /><path
         d="m 3161.13,5391.86 731.742,0 0,231.582 -731.742,0 0,-231.582 z"
         style="fill:#434345;fill-opacity:1;fill-rule:nonzero;stroke:none"
         id="path358"
         inkscape:connector-curvature="0" /><path
         d="m 3900.49,5776.8 c -34.75,300.86 -186.54,545.21 -469.59,637.33 -3.65,32.51 -17.42,61.92 -38.05,85.17 -28.16,31.46 -69.18,51.49 -114.8,51.49 l -20.8,0 c -1.2,-9.66 -3.81,-18.72 -8.13,-27 -13.07,-25.16 -39.12,-42.52 -69.65,-42.52 l -28.2,0 c -30.33,0 -56.66,17.42 -69.53,42.75 -4.16,8.18 -7.07,17.27 -8.19,26.77 l -20.8,0 c -44.64,0 -85.02,-19.22 -113.08,-49.72 -21.12,-23 -35.31,-52.47 -39.38,-85 -289.27,-90.78 -437.99,-336.62 -471.6,-639.56 -19.3,-4.3 -68.87,-24.73 -78.08,-121.27 -1.61,-15.44 -2.25,-32.44 -1.22,-52.03 3.23,-6.64 7.21,-12.73 11.2,-18.52 l 1609,0 c 4.18,5.9 8.71,11.85 12.21,18.52 0.8,19.59 0,36.59 -1.21,52.03 -9.91,99.4 -62.15,118.23 -80.1,121.56"
         style="fill:#f35f3e;fill-opacity:1;fill-rule:nonzero;stroke:none"
         id="path360"
         inkscape:connector-curvature="0" /><path
         d="m 3392.85,6499.3 c -28.16,31.46 -69.18,51.49 -114.8,51.49 l -20.8,0 c -1.2,-9.66 -3.81,-18.72 -8.13,-27 -13.07,-25.16 -39.12,-42.52 -69.65,-42.52 l -28.2,0 c -30.33,0 -56.66,17.42 -69.53,42.75 -4.16,8.18 -7.07,17.27 -8.19,26.77 l -20.8,0 c -44.64,0 -85.02,-19.22 -113.08,-49.72 -21.12,-23 -35.31,-52.47 -39.38,-85 -0.08,-0.02 -0.11,-0.03 -0.19,-0.05 l 0,-760.22 530.82,0 0,758.31 c -0.02,0.01 -0.02,0.02 -0.02,0.02 -3.65,32.51 -17.42,61.92 -38.05,85.17"
         style="fill:#ea4f38;fill-opacity:1;fill-rule:nonzero;stroke:none"
         id="path362"
         inkscape:connector-curvature="0" /><path
         d="m 3900.49,5776.8 c -34.75,300.86 -186.54,545.21 -469.59,637.33 -3.65,32.51 -17.42,61.92 -38.05,85.17 -28.16,31.46 -69.18,51.49 -114.8,51.49 l -20.8,0 c -1.2,-9.66 -3.81,-18.72 -8.13,-27 -13.07,-25.16 -39.12,-42.52 -69.65,-42.52 l -13.96,0 0,-896.58 804.08,0 c 4.18,5.9 8.71,11.85 12.21,18.52 0.8,19.59 0,36.59 -1.21,52.03 -9.91,99.4 -62.15,118.23 -80.1,121.56"
         style="fill:#ea4f38;fill-opacity:1;fill-rule:nonzero;stroke:none"
         id="path364"
         inkscape:connector-curvature="0" /><path
         d="m 3392.85,6499.3 c -28.16,31.46 -69.18,51.49 -114.8,51.49 l -20.8,0 c -1.2,-9.66 -3.81,-18.72 -8.13,-27 -13.07,-25.16 -39.12,-42.52 -69.65,-42.52 l -13.96,0 0,-825.47 265.41,0 0,758.31 c -0.02,0.01 -0.02,0.02 -0.02,0.02 -3.65,32.51 -17.42,61.92 -38.05,85.17"
         style="fill:#d83e30;fill-opacity:1;fill-rule:nonzero;stroke:none"
         id="path366"
         inkscape:connector-curvature="0" /><path
         d="m 3960.08,5598.42 -1589.22,0 c -24.86,0 -44.86,-25.64 -44.86,-57.08 0,-31.52 20,-56.98 44.86,-56.98 l 1589.22,0 c 24.74,0 44.94,25.46 44.94,56.98 0,31.44 -20.2,57.08 -44.94,57.08"
         style="fill:#ea4f38;fill-opacity:1;fill-rule:nonzero;stroke:none"
         id="path368"
         inkscape:connector-curvature="0" /><path
         d="m 3960.08,5598.42 -794.57,0 0,-114.06 794.57,0 c 24.74,0 44.94,25.46 44.94,56.98 0,31.44 -20.2,57.08 -44.94,57.08"
         style="fill:#d83e30;fill-opacity:1;fill-rule:nonzero;stroke:none"
         id="path370"
         inkscape:connector-curvature="0" /><path
         d="m 3368.42,3453.63 416.87,-555.66 357.39,264.22 -445.8,456.78 -328.46,-165.34"
         style="fill:#e5b029;fill-opacity:1;fill-rule:nonzero;stroke:none"
         id="path372"
         inkscape:connector-curvature="0" /><path
         d="M 5738.79,3945.07 3930.18,3158.53 c -192.48,-83.71 -306.94,-232.8 -260.57,-339.43 46.37,-106.63 233.48,-124.59 425.96,-40.89 l 1808.61,786.55 c 192.48,83.7 254.75,210.09 208.36,316.72 -46.37,106.63 -181.27,147.29 -373.75,63.59"
         style="fill:#5b6973;fill-opacity:1;fill-rule:nonzero;stroke:none"
         id="path374"
         inkscape:connector-curvature="0" /><path
         d="m 3669.61,2819.09 c 46.37,-106.62 233.48,-124.58 425.96,-40.88 l 1808.61,786.55 c 192.48,83.7 254.75,210.1 208.36,316.72 L 3669.61,2819.09"
         style="fill:#4d585f;fill-opacity:1;fill-rule:nonzero;stroke:none"
         id="path376"
         inkscape:connector-curvature="0" /><path
         d="M 5748.38,3922.99 3939.77,3136.45 c -176.64,-76.82 -288.29,-215.31 -248.07,-307.75 40.19,-92.44 217.62,-105.22 394.26,-28.4 l 1808.61,786.54 c 176.66,76.81 236.09,192.6 195.9,285.04 -40.2,92.45 -165.43,127.92 -342.09,51.11"
         style="fill:#8e9496;fill-opacity:1;fill-rule:nonzero;stroke:none"
         id="path378"
         inkscape:connector-curvature="0" /><path
         d="m 3691.7,2828.7 c 40.19,-92.44 217.62,-105.22 394.26,-28.4 l 1808.61,786.54 c 176.66,76.81 236.09,192.6 195.9,285.04 L 3691.7,2828.7"
         style="fill:#828889;fill-opacity:1;fill-rule:nonzero;stroke:none"
         id="path380"
         inkscape:connector-curvature="0" /><path
         d="m 4165.76,2872.67 -163.1,375.08 c -14.28,32.82 -53.03,70.81 -86.14,84.45 l -77.2,31.78 c -33.11,13.63 -87.03,13.1 -119.85,-1.17 l -136.38,-59.31 c -32.82,-14.28 -85.65,-21.28 -117.41,-15.58 -31.73,5.7 -84.57,-1.31 -117.38,-15.58 l -161.97,-70.44 c -32.81,-14.26 -79.32,-47.64 -103.34,-74.18 l -200.24,-221.18 c -24.02,-26.53 -31.99,-75.09 -17.73,-107.91 l 311.41,-716.03 c 14.25,-32.82 52.79,-48 85.6,-33.72 l 127.87,55.6 c 32.81,14.27 86.53,37.63 119.34,51.9 l 630.8,274.32 c 32.81,14.27 59,55.23 58.2,91 l -5.08,226.25 c -0.8,35.77 -13.12,91.9 -27.4,124.72"
         style="fill:#f14d41;fill-opacity:1;fill-rule:nonzero;stroke:none"
         id="path382"
         inkscape:connector-curvature="0" /><path
         d="m 4165.76,2872.68 -59.31,136.39 -1120.94,-487.48 190.92,-438.99 c 14.25,-32.82 52.79,-48 85.6,-33.72 l 127.87,55.6 c 32.81,14.27 86.53,37.63 119.34,51.9 l 630.8,274.32 c 32.81,14.27 59,55.23 58.2,91 l -5.08,226.25 c -0.8,35.77 -13.12,91.9 -27.4,124.73"
         style="fill:#f0403c;fill-opacity:1;fill-rule:nonzero;stroke:none"
         id="path384"
         inkscape:connector-curvature="0" /><path
         d="m 3882.95,2796.4 c -13.87,31.88 -51.29,46.62 -83.16,32.76 l -513.4,-223.27 c -31.88,-13.86 -46.62,-51.29 -32.76,-83.18 l 167.95,-386.21 c 13.87,-31.87 51.29,-46.62 83.19,-32.75 l 513.37,223.26 c 31.9,13.87 46.63,51.3 32.78,83.18 l -167.97,386.21"
         style="fill:#e63736;fill-opacity:1;fill-rule:nonzero;stroke:none"
         id="path386"
         inkscape:connector-curvature="0" /><path
         d="m 2962.89,2165.95 -275.12,-102.09 c -33.55,-12.45 -75.84,-46.19 -93.98,-74.99 -18.15,-28.79 -50.39,-28.82 -71.68,-0.05 l -33.24,44.93 c -21.29,28.77 -17.41,72.39 8.63,96.94 l 304.28,286.95 c 26.03,24.56 73.53,31.57 105.56,15.6 l 51.82,-25.86 c 32.03,-15.96 59.24,-58.3 60.47,-94.06 l 2.03,-59.71 c 1.23,-35.76 -25.21,-75.21 -58.77,-87.66 z m 255.74,355.66 c -14.27,32.82 -52.79,48 -85.62,33.72 l -55.39,-24.09 c -32.83,-14.28 -83.58,-9.02 -112.78,11.65 l -62.26,44.11 c -29.22,20.7 -73.26,16.37 -97.89,-9.59 l -417.8,-440.45 c -24.62,-25.96 -29.8,-72.38 -11.52,-103.14 l 86.7,-145.88 c 18.3,-30.76 61.04,-46.68 95,-35.38 l 770.35,256.39 c 33.97,11.3 50.06,47.4 35.78,80.22 l -144.57,332.44"
         style="fill:#414955;fill-opacity:1;fill-rule:nonzero;stroke:none"
         id="path388"
         inkscape:connector-curvature="0" /><path
         d="m 3119.02,2488.44 c -29.41,-12.81 -42.89,-47.02 -30.09,-76.45 12.79,-29.42 47.01,-42.91 76.44,-30.11 29.42,12.8 42.91,47.03 30.1,76.45 -12.79,29.42 -47.01,42.89 -76.45,30.11"
         style="fill:#ecc10c;fill-opacity:1;fill-rule:nonzero;stroke:none"
         id="path390"
         inkscape:connector-curvature="0" /><path
         d="m 3195.02,2313.69 c -35.9,-15.61 -52.34,-57.37 -36.72,-93.27 15.61,-35.9 57.36,-52.34 93.26,-36.73 35.9,15.62 52.35,57.36 36.72,93.26 -15.6,35.9 -57.36,52.35 -93.26,36.74"
         style="fill:#ecc10c;fill-opacity:1;fill-rule:nonzero;stroke:none"
         id="path392"
         inkscape:connector-curvature="0" /><path
         d="m 3635.31,3493.45 c -25.21,45.7 -83.57,81.37 -135.74,82.97 l -41.15,1.26 c -54.51,1.67 -113.03,-34.34 -136.12,-83.73 l -128.22,-274.33 c -2.46,-5.25 -3.79,-10.71 -4.2,-16.17 l 124.57,54.18 92.07,196.95 c 7.23,15.48 32,30.7 49.07,30.19 l 41.13,-1.26 c 19.45,-0.6 47.79,-17.91 57.19,-34.96 l 590.95,-1071.19 c 11.68,-21.16 37.46,-29.65 59.18,-20.19 1.35,0.58 2.68,1.23 3.99,1.95 22.46,12.4 30.62,40.67 18.24,63.15 l -590.96,1071.18"
         style="fill:#414955;fill-opacity:1;fill-rule:nonzero;stroke:none"
         id="path394"
         inkscape:connector-curvature="0" /><path
         d="m 3966.93,2603.29 -629.31,-273.68 83.96,-193.11 c 13.87,-31.87 51.31,-46.62 83.19,-32.75 l 513.37,223.26 c 31.9,13.87 46.63,51.3 32.78,83.18 l -83.99,193.1"
         style="fill:#dd2f32;fill-opacity:1;fill-rule:nonzero;stroke:none"
         id="path396"
         inkscape:connector-curvature="0" /><path
         d="m 3068.67,2948.02 9.47,-21.77 413.42,179.79 -9.45,21.77 -413.44,-179.79"
         style="fill:#dd2f32;fill-opacity:1;fill-rule:nonzero;stroke:none"
         id="path398"
         inkscape:connector-curvature="0" /><path
         d="m 3084.06,2912.65 9.46,-21.76 413.43,179.78 -9.47,21.77 -413.42,-179.79"
         style="fill:#dd2f32;fill-opacity:1;fill-rule:nonzero;stroke:none"
         id="path400"
         inkscape:connector-curvature="0" /><path
         d="m 3099.43,2877.28 9.48,-21.76 413.41,179.78 -9.45,21.77 -413.44,-179.79"
         style="fill:#dd2f32;fill-opacity:1;fill-rule:nonzero;stroke:none"
         id="path402"
         inkscape:connector-curvature="0" /><path
         d="m 3114.82,2841.91 9.46,-21.75 413.43,179.78 -9.47,21.77 -413.42,-179.8"
         style="fill:#dd2f32;fill-opacity:1;fill-rule:nonzero;stroke:none"
         id="path404"
         inkscape:connector-curvature="0" /><path
         d="m 2788.54,2404.74 c -136.51,165.46 -163.77,96.78 -211.41,102.24 -47.64,5.48 -117.05,77 -117.05,77 0,0 -116.53,-117.69 -149.2,-150.71 114.8,-107.97 87.69,-110.48 100.39,-176.13 9.32,-48.11 83.34,-109.88 122.27,-139.49 l 41.21,-40.81 c 12.69,-12.57 33.16,-12.46 45.72,0.22 9.08,9.18 11.44,22.43 7.28,33.82 0.02,0 0.06,0.01 0.08,0.01 5.88,16.8 19.51,6.25 19.51,6.25 12.68,-12.56 33.15,-12.45 45.69,0.21 11.44,11.56 12.26,29.47 2.79,42.06 0,0 0.04,0.04 0.08,0.05 0.31,16.09 14.14,8.09 14.14,8.09 0,0 0.06,0.06 0.12,0.13 12.71,-9.79 30.95,-8.94 42.54,2.77 10.48,10.59 12.01,26.56 4.86,38.89 0.02,0.01 0.06,0.03 0.1,0.05 -4.32,18.18 13.63,16.63 13.63,16.63 l 0.02,0.03 c 10.37,-2.15 21.58,0.78 29.55,8.83 12.58,12.7 12.46,33.16 -0.23,45.73 -18.62,24.49 7.81,30.73 7.81,30.73 l -0.08,0.11 c 7.01,0.83 13.81,3.82 19.16,9.22 12.56,12.69 12.46,33.15 -0.23,45.71 l -38.75,38.36"
         style="fill:#f6ad67;fill-opacity:1;fill-rule:nonzero;stroke:none"
         id="path406"
         inkscape:connector-curvature="0" /><path
         d="m 2003.59,3284.88 c -23.47,-79.12 -38.08,-175.15 -28.12,-284.08 16.31,-178.61 98.71,-391.89 316.42,-622.09 l 244.73,231.48 c -132.58,140.19 -276.66,354.38 -210.08,578.89 39.79,134.11 149.61,246.89 260.49,307.98 -1.46,9.38 -1.13,19.03 1.72,28.56 9.47,31.67 12.27,64.84 21.66,96.43 9.53,32.04 22.99,56.37 37.68,85.65 0.33,0.66 0.74,1.26 1.09,1.93 l -37.72,156.49 c -225.87,-54.42 -512.44,-259.56 -607.87,-581.24"
         style="fill:#e5b029;fill-opacity:1;fill-rule:nonzero;stroke:none"
         id="path408"
         inkscape:connector-curvature="0" /><path
         d="m 3319.61,3556.22 0.21,-144.33 c 0.08,-58.01 18.79,-71.66 41.82,-71.62 23.05,0.02 41.68,18.73 41.66,41.76 l -0.12,86.63 c 0,0 9.42,26.82 23.83,3 l 0.16,-114.63 c 0.04,-23.01 18.75,-41.7 41.78,-41.65 23.04,0.03 41.69,18.75 41.64,41.76 l -0.16,117.13 c 0,0 11.41,19.38 23.83,0.03 l 0.15,-100.04 c 0.04,-23.04 18.77,-41.68 41.78,-41.65 23.05,0.03 41.7,18.75 41.64,41.76 l -0.15,105.03 c 0,0 9.45,19.87 23.84,1.02 l 0.1,-67.08 c 0.04,-23.07 18.77,-41.7 41.78,-41.66 23.05,0.03 41.7,18.73 41.64,41.76 l -0.2,140.16 c -0.25,165.18 -405.43,145.82 -405.23,2.62"
         style="fill:#f6ad67;fill-opacity:1;fill-rule:nonzero;stroke:none"
         id="path410"
         inkscape:connector-curvature="0" /></g></g></svg>